<?xml version="1.0" standalone="no"?>
<!DOCTYPE svg PUBLIC "-//W3C//DTD SVG 20010904//EN"
 "http://www.w3.org/TR/2001/REC-SVG-20010904/DTD/svg10.dtd">
<svg version="1.0" xmlns="http://www.w3.org/2000/svg"
 width="960.000000pt" height="1080.000000pt" viewBox="0 0 960.000000 1080.000000"
 preserveAspectRatio="xMidYMid meet">
<metadata>
Created by potrace 1.16, written by Peter Selinger 2001-2019
</metadata>
<g transform="translate(0.000000,1080.000000) scale(0.100000,-0.100000)"
fill="#000000" stroke="none">
<path d="M0 2159 l0 -402 43 7 c44 6 136 51 302 146 55 31 143 81 195 110 142
79 176 118 154 175 -9 21 -64 58 -219 145 -72 40 -176 99 -233 131 -106 59
-179 89 -219 89 l-23 0 0 -401z"/>
<path d="M840 1971 c-30 -15 -100 -52 -155 -83 -55 -31 -138 -77 -185 -103
-137 -76 -180 -106 -196 -137 -14 -26 -14 -32 0 -53 21 -32 63 -62 186 -130
58 -33 143 -81 190 -107 171 -98 209 -113 280 -113 74 0 119 19 340 145 69 40
160 91 202 115 42 23 87 52 99 64 27 25 29 73 5 100 -14 16 -238 151 -250 151
-3 0 -40 21 -83 46 -43 26 -118 66 -167 90 -113 55 -179 59 -266 15z"/>
<path d="M0 1080 l0 -440 43 6 c52 8 110 33 207 88 41 24 118 67 170 96 338
189 350 198 350 255 0 49 -19 63 -275 207 -44 25 -142 80 -218 123 -125 71
-210 105 -259 105 -17 0 -18 -25 -18 -440z"/>
<path d="M1855 1514 c-53 -13 -106 -40 -355 -181 -19 -11 -87 -48 -150 -83
-140 -78 -177 -105 -196 -142 -14 -27 -14 -32 2 -56 23 -37 47 -56 134 -104
41 -23 116 -65 167 -95 50 -29 94 -53 97 -53 3 0 38 -20 79 -45 142 -86 202
-109 286 -109 90 1 102 5 336 136 428 239 435 244 435 296 0 54 -35 82 -240
195 -36 19 -121 67 -190 107 -200 114 -239 130 -317 135 -37 2 -77 2 -88 -1z"/>
<path d="M900 946 c-51 -11 -139 -54 -300 -146 -36 -21 -83 -48 -105 -60 -233
-128 -273 -161 -259 -214 8 -35 36 -57 159 -127 452 -257 474 -267 562 -267
84 1 122 14 248 87 98 56 211 120 347 195 81 44 138 96 138 125 0 33 -57 86
-145 135 -44 24 -134 74 -200 111 -210 119 -279 153 -320 160 -22 4 -47 8 -55
10 -8 2 -40 -2 -70 -9z"/>
<path d="M2860 952 c-68 -8 -122 -28 -214 -81 -56 -32 -148 -84 -206 -116
-196 -109 -225 -127 -257 -158 -64 -60 -40 -98 119 -190 298 -171 459 -257
504 -267 58 -13 126 -11 174 6 30 10 275 142 305 164 6 4 46 27 90 50 119 64
212 126 225 150 7 12 9 32 6 45 -7 28 -70 81 -146 122 -85 47 -283 158 -359
203 -38 22 -82 45 -98 51 -36 14 -111 25 -143 21z"/>
<path d="M0 241 l0 -241 420 0 c399 0 420 1 420 18 0 31 -62 80 -185 147 -38
21 -99 54 -135 75 -328 189 -404 227 -473 236 l-47 7 0 -242z"/>
<path d="M1815 462 c-47 -16 -153 -72 -400 -212 -60 -34 -146 -82 -190 -106
-44 -25 -95 -60 -112 -79 -66 -70 -124 -65 807 -65 720 0 840 2 840 14 0 23
-47 73 -93 99 -472 267 -595 335 -643 351 -61 21 -146 20 -209 -2z"/>
<path d="M3730 462 c-43 -16 -73 -31 -149 -75 -20 -11 -108 -60 -196 -110
-300 -167 -334 -188 -360 -218 -52 -63 -106 -59 815 -59 731 0 840 2 840 15 0
20 -52 78 -87 95 -15 8 -50 28 -78 44 -66 38 -283 159 -365 204 -36 19 -82 46
-102 58 -96 60 -228 79 -318 46z"/>
<path d="M5640 457 c-58 -24 -89 -41 -285 -151 -66 -38 -173 -98 -238 -134
-132 -73 -197 -124 -197 -153 0 -19 18 -19 840 -19 720 0 840 2 840 14 0 33
-61 80 -218 169 -383 216 -469 262 -517 279 -71 25 -158 23 -225 -5z"/>
<path d="M7585 466 c-49 -16 -114 -49 -237 -119 -51 -30 -118 -67 -148 -84
-283 -155 -360 -208 -360 -249 0 -12 120 -14 840 -14 775 0 840 1 840 17 0 39
-98 104 -435 288 -27 15 -75 43 -106 61 -127 76 -210 109 -284 111 -38 2 -88
-3 -110 -11z"/>
<path d="M9490 461 c-30 -10 -73 -29 -95 -43 -22 -13 -112 -64 -200 -113 -358
-197 -435 -249 -435 -291 0 -12 72 -14 420 -14 l420 0 0 240 0 240 -27 -1
c-16 0 -53 -9 -83 -18z"/>
</g>
</svg>
