<svg xmlns="http://www.w3.org/2000/svg"
     viewBox="2 1 20 10"
     clip-rule="evenodd"
     fill-rule="evenodd"
     stroke-linejoin="round"
     stroke-miterlimit="2">
  <path d="M11.262 1.153c.196-.098.461-.153.738-.153s.542.055.738.153c1.917.958 7.039 3.52 8.956 4.478.196.098.306.231.306.369s-.11.271-.306.369c-1.917.958-7.039 3.52-8.956 4.478-.196.098-.461.153-.738.153s-.542-.055-.738-.153c-1.917-.958-7.039-3.52-8.956-4.478-.196-.098-.306-.231-.306-.369s.11-.271.306-.369c1.917-.958 7.039-3.52 8.956-4.478z"
        fill="black"/>
</svg>
